<svg width="20" height="20" viewBox="0 0 20 20" fill="none" xmlns="http://www.w3.org/2000/svg">
<path d="M17.7984 8.65892C17.7984 8.55815 17.1937 7.04651 15.4803 5.73643C15.5811 5.63566 15.6819 5.53488 15.7827 5.4341L16.7905 3.4186C16.9921 2.91472 16.7905 2.31008 16.3874 2.10853C15.8835 1.90698 15.2787 2.10853 15.0772 2.51163L14.0693 4.52713C14.0693 4.62791 13.9685 4.72869 13.9685 4.82946C13.1622 4.42636 12.1543 4.12403 10.9449 4.02326V2.00775C10.9449 1.4031 10.5417 1 9.93702 1C9.33229 1 8.92914 1.4031 8.92914 2.00775V4.02326C7.7197 4.12403 6.71182 4.42636 5.90553 4.82946C5.90553 4.72869 5.90552 4.62791 5.80473 4.52713L4.79686 2.51163C4.59528 2.00775 3.99057 1.80621 3.48664 2.10853C2.9827 2.31008 2.7811 2.91472 3.08346 3.4186L4.09134 5.4341C4.19212 5.53488 4.29293 5.63566 4.39372 5.73643C2.68033 7.04651 2.07559 8.55815 2.07559 8.65892C1.9748 8.86048 1.9748 9.1628 2.07559 9.36435C2.17638 9.5659 3.88979 14 10.0378 14C16.1858 14 18 9.46512 18 9.36435C17.8992 9.1628 17.8992 8.96125 17.7984 8.65892ZM9.83622 12.0853C6.00631 12.0853 4.39372 9.969 3.88978 9.06202C4.39372 8.15504 6.00631 6.03876 9.83622 6.03876C13.6661 6.03876 15.2787 8.15504 15.7827 9.06202C15.2787 9.969 13.6661 12.0853 9.83622 12.0853Z" fill="#424242"/>
<path d="M10 11C11.1046 11 12 10.1046 12 9C12 7.89543 11.1046 7 10 7C8.89543 7 8 7.89543 8 9C8 10.1046 8.89543 11 10 11Z" fill="#424242"/>
</svg>
