<svg width="20" height="20" viewBox="0 0 20 20" fill="none" xmlns="http://www.w3.org/2000/svg">
<path d="M17.9378 9.38376C18.1363 8.87601 17.8386 8.26672 17.3425 8.06362C16.8464 7.86052 16.2511 8.16516 16.0526 8.67291C16.0526 8.67291 14.7627 12.1256 10 12.1256C5.33652 12.1256 4.04661 8.87601 3.94739 8.67291C3.74894 8.16516 3.15362 7.86052 2.6575 8.06362C2.16139 8.26672 1.86371 8.87601 2.06216 9.38376C2.06216 9.48531 2.65751 11.0086 4.34431 12.3287C4.24508 12.4303 4.14585 12.5318 4.14585 12.6334L3.15362 14.6644C2.95517 15.1721 3.15361 15.7814 3.5505 15.9845C3.64973 16.0861 3.84817 16.0861 3.94739 16.0861C4.34428 16.0861 4.64198 15.883 4.84042 15.4768L5.83265 13.4458C5.83265 13.3442 5.93185 13.2427 5.93185 13.1411C6.72563 13.5473 7.71786 13.852 8.90854 13.9535V15.9845C8.90854 16.5938 9.30543 17 9.90077 17C10.4961 17 10.893 16.5938 10.893 15.9845V13.9535C12.0837 13.852 13.0759 13.5473 13.8697 13.1411C13.8697 13.2427 13.8697 13.3442 13.9689 13.4458L14.9612 15.4768C15.1596 15.883 15.4573 16.0861 15.8542 16.0861C16.0526 16.0861 16.1518 16.0861 16.2511 15.9845C16.7472 15.7814 16.9456 15.1721 16.648 14.6644L15.6557 12.6334C15.5565 12.5318 15.5565 12.4303 15.4573 12.3287C17.3425 11.0086 17.9378 9.48531 17.9378 9.38376Z" fill="#ECEBE8"/>
</svg>
