<svg width="115" height="32" viewBox="0 0 115 32" fill="none" xmlns="http://www.w3.org/2000/svg">
<path d="M12.2174 26.227H16.5136C15.9766 27.9723 15.0368 29.3148 13.56 30.3889C12.0832 31.463 10.4721 32 8.59248 32C7.51842 32 6.44435 31.7315 5.37029 31.3287C4.29623 30.9259 3.35644 30.2547 2.5509 29.5834C1.74536 28.7778 1.07406 27.838 0.671286 26.7639C0.268514 25.6899 0 24.6158 0 23.4075C0 21.1251 0.805548 19.1113 2.41663 17.5002C4.02772 15.8891 6.04158 15.0836 8.45821 15.0836C10.2036 15.0836 11.9489 15.6206 13.4257 16.6946C14.9026 17.7687 15.9766 19.1113 16.3794 20.8567H12.0832C11.6804 20.1854 11.1434 19.6483 10.6063 19.2456C10.0693 18.977 9.26375 18.7085 8.45821 18.7085C7.11564 18.7085 5.90732 19.1113 5.10178 20.0511C4.29624 20.9909 3.89347 22.0649 3.89347 23.4075C3.89347 24.7501 4.29624 25.9584 5.23605 26.8982C6.17585 27.838 7.24989 28.2408 8.72672 28.2408C9.39801 28.2408 10.0693 28.1065 10.7406 27.7037C11.2776 27.301 11.8146 26.8982 12.2174 26.227Z" fill="#6D6E70"/>
<path d="M26.5829 14.9493C28.8653 14.9493 30.8792 15.7549 32.4903 17.366C34.1013 18.977 34.9069 20.9909 34.9069 23.4075C34.9069 25.6899 34.1013 27.7038 32.356 29.3149C30.7449 30.926 28.731 31.7315 26.3144 31.7315C24.032 31.7315 22.0182 30.926 20.4071 29.1807C18.796 27.5696 17.8562 25.5557 17.8562 23.2733C17.8562 20.8567 18.6618 18.8428 20.4071 17.2317C22.1524 15.8892 24.1663 14.9493 26.5829 14.9493ZM26.4487 18.7085C25.7774 18.7085 25.2404 18.8429 24.7033 19.1114C24.1663 19.3799 23.6293 19.6484 23.2265 20.1854C22.2867 21.1252 21.8839 22.1993 21.8839 23.5418C21.8839 24.8844 22.2867 25.9585 23.2265 26.8983C24.1663 27.8381 25.2404 28.2408 26.4487 28.2408C27.7913 28.2408 28.8653 27.8381 29.8051 26.8983C30.7449 25.9585 31.1477 24.8844 31.1477 23.5418C31.1477 22.1993 30.7449 21.1252 29.8051 20.1854C28.8653 19.2456 27.7913 18.7085 26.4487 18.7085Z" fill="#6D6E70"/>
<path d="M21.2126 13.6067L24.8376 9.57898H27.9255L31.6847 13.6067H27.9255L26.3144 11.7271L24.5691 13.6067H21.2126Z" fill="#6D6E70"/>
<path d="M48.6011 26.227H52.8973C52.3603 27.9723 51.4205 29.3148 49.9437 30.3889C48.4668 31.463 46.8557 32 44.9761 32C43.9021 32 42.828 31.7315 41.754 31.3287C40.6799 30.9259 39.7401 30.2547 38.9345 29.5834C38.129 28.7778 37.4577 27.838 37.055 26.7639C36.6522 25.6899 36.3837 24.6158 36.3837 23.4075C36.3837 21.1251 37.1892 19.1113 38.8003 17.5002C40.4114 15.8891 42.4252 15.0836 44.8419 15.0836C46.5872 15.0836 48.3326 15.6206 49.8094 16.6946C51.2862 17.7687 52.3603 19.1113 52.763 20.8567H48.4668C48.064 20.1854 47.527 19.6483 46.99 19.2456C46.453 18.977 45.6474 18.7085 44.8419 18.7085C43.4993 18.7085 42.291 19.1113 41.4854 20.0511C40.6799 20.9909 40.2771 22.0649 40.2771 23.4075C40.2771 24.7501 40.6799 25.9584 41.6197 26.8982C42.5595 27.838 43.6336 28.2408 45.1104 28.2408C45.7817 28.2408 46.453 28.1065 47.1242 27.7037C47.6613 27.301 48.1983 26.8982 48.6011 26.227Z" fill="#6D6E70"/>
<path d="M74.2443 26.227H78.5405C78.0035 27.9723 77.0637 29.3148 75.5868 30.3889C74.11 31.463 72.4989 32 70.6193 32C69.5453 32 68.4712 31.7315 67.3971 31.3287C66.3231 30.9259 65.3833 30.2547 64.5777 29.5834C63.7722 28.7778 63.1009 27.838 62.6981 26.7639C62.2954 25.6899 62.0269 24.6158 62.0269 23.4075C62.0269 21.1251 62.8324 19.1113 64.4435 17.5002C66.0546 15.8891 68.0684 15.0836 70.485 15.0836C72.2304 15.0836 73.9758 15.6206 75.4526 16.6946C76.9294 17.7687 78.0035 19.1113 78.4062 20.8567H74.11C73.7072 20.1854 73.1702 19.6483 72.6332 19.2456C72.0961 18.977 71.2906 18.7085 70.485 18.7085C69.1425 18.7085 67.9342 19.1113 67.1286 20.0511C66.3231 20.9909 65.9203 22.0649 65.9203 23.4075C65.9203 24.7501 66.3231 25.9584 67.2629 26.8982C68.2027 27.838 69.2767 28.2408 70.7536 28.2408C71.4249 28.2408 72.0961 28.1065 72.7674 27.7037C73.3045 27.301 73.8415 26.8982 74.2443 26.227Z" fill="#6D6E70"/>
<path d="M88.6098 14.9493C90.8922 14.9493 92.906 15.7549 94.5171 17.366C96.1282 18.977 96.9337 20.9909 96.9337 23.4075C96.9337 25.6899 96.1282 27.7038 94.3828 29.3149C92.7718 30.926 90.7579 31.7315 88.3413 31.7315C86.0589 31.7315 84.045 30.926 82.434 29.1807C80.8229 27.5696 79.8831 25.5557 79.8831 23.2733C79.8831 20.8567 80.6886 18.8428 82.434 17.2317C84.1793 15.8892 86.1931 14.9493 88.6098 14.9493ZM88.4755 18.7085C87.8042 18.7085 87.2672 18.8429 86.7302 19.1114C86.1932 19.3799 85.6561 19.6484 85.2533 20.1854C84.3135 21.1252 83.9108 22.1993 83.9108 23.5418C83.9108 24.8844 84.3135 25.9585 85.2533 26.8983C86.1931 27.8381 87.2672 28.2408 88.4755 28.2408C89.8181 28.2408 90.8922 27.8381 91.832 26.8983C92.7718 25.9585 93.1745 24.8844 93.1745 23.5418C93.1745 22.1993 92.7718 21.1252 91.832 20.1854C90.8922 19.2456 89.8181 18.7085 88.4755 18.7085Z" fill="#6D6E70"/>
<path d="M83.2395 13.6067L86.8645 9.57898H89.9524L93.7116 13.6067H89.9524L88.3413 11.7271L86.5959 13.6067H83.2395Z" fill="#6D6E70"/>
<path d="M110.628 26.227H114.924C114.387 27.9723 113.447 29.3148 111.971 30.3889C110.494 31.463 108.883 32 107.003 32C105.929 32 104.855 31.7315 103.781 31.3287C102.707 30.9259 101.767 30.2547 100.961 29.5834C100.156 28.7778 99.4846 27.838 99.0818 26.7639C98.679 25.6899 98.4105 24.6158 98.4105 23.4075C98.4105 21.1251 99.2161 19.1113 100.961 17.5002C102.573 15.8891 104.586 15.0836 107.003 15.0836C108.748 15.0836 110.494 15.6206 111.971 16.6946C113.447 17.7687 114.521 19.1113 114.924 20.8567H110.628C110.225 20.1854 109.688 19.6483 109.151 19.2456C108.614 18.977 107.809 18.7085 107.003 18.7085C105.66 18.7085 104.452 19.1113 103.647 20.0511C102.841 20.9909 102.438 22.0649 102.438 23.4075C102.438 24.7501 102.841 25.9584 103.781 26.8982C104.721 27.838 105.795 28.2408 107.272 28.2408C107.943 28.2408 108.614 28.1065 109.285 27.7037C109.688 27.301 110.225 26.8982 110.628 26.227Z" fill="#6D6E70"/>
<path d="M30.4764 5.5513L31.819 2.06064C32.0875 1.38936 32.356 0.852279 32.4903 0.583764C32.6245 0.31525 32.893 0.181042 33.2958 0.0467845C33.8328 -0.0874727 34.2356 0.0467845 34.3699 0.718071C34.5041 1.12084 34.2356 1.92639 33.4301 2.73193L30.8792 6.08836C30.7449 6.35688 30.6107 6.49112 30.4764 6.49112C30.3422 6.49112 30.2079 6.49115 30.2079 6.35689C30.2079 6.22263 30.2079 5.95407 30.4764 5.5513Z" fill="#67B357"/>
<path d="M32.0875 7.16243L34.5041 4.34306C35.0411 3.80603 35.3096 3.40319 35.5781 3.26894C35.8467 3.13468 36.1152 3.00049 36.518 3.00049C37.055 3.00049 37.4577 3.40319 37.3235 3.94022C37.3235 4.47725 36.7865 5.0143 35.8467 5.55133L32.356 7.83372C32.0875 7.96797 31.9532 8.10225 31.819 8.10225C31.6847 8.10225 31.6847 7.96794 31.6847 7.96794C31.6847 7.69943 31.819 7.5652 32.0875 7.16243Z" fill="#67B357"/>
<path d="M33.5644 8.90778L36.9208 7.16245C37.5921 6.75968 37.9949 6.62542 38.3976 6.49116C38.6661 6.35691 39.0689 6.49113 39.3374 6.62539C39.8744 6.8939 40.0087 7.29671 39.7402 7.83374C39.4717 8.23651 38.8004 8.6393 37.7263 8.77355L33.5644 9.57907C33.2958 9.57907 33.1616 9.57907 33.0273 9.57907C32.8931 9.57907 32.8931 9.44479 32.8931 9.31053C32.8931 9.17628 33.1616 9.04204 33.5644 8.90778Z" fill="#67B357"/>
<path d="M92.369 5.5513L93.7115 2.06064C93.9801 1.38936 94.2486 0.852279 94.3828 0.583764C94.5171 0.31525 94.7856 0.181042 95.1884 0.0467845C95.7254 -0.0874727 96.1282 0.0467845 96.2624 0.718071C96.3967 1.12084 96.1282 1.92639 95.3226 2.73193L92.7718 6.08836C92.6375 6.35688 92.5032 6.49112 92.369 6.49112C92.2347 6.49112 92.1005 6.49115 92.1005 6.35689C92.1005 6.22263 92.2347 5.95407 92.369 5.5513Z" fill="#EC8027"/>
<path d="M93.98 7.29666L96.3967 4.34306C96.9337 3.80603 97.2022 3.40319 97.4707 3.26894C97.7392 3.13468 98.0077 3.00049 98.4105 3.00049C99.0818 3.00049 99.3503 3.40319 99.2161 3.94022C99.2161 4.47725 98.679 5.0143 97.7392 5.55133L94.2486 7.83372C93.98 7.96797 93.8458 8.10225 93.7115 8.10225C93.5773 8.10225 93.5773 7.96794 93.5773 7.96794C93.5773 7.83368 93.7115 7.56517 93.98 7.29666Z" fill="#EC8027"/>
<path d="M95.5912 8.90778L98.9476 7.16245C99.6189 6.75968 100.022 6.62542 100.424 6.49116C100.693 6.35691 101.096 6.49113 101.364 6.62539C101.901 6.8939 102.036 7.29671 101.767 7.83374C101.499 8.23651 100.827 8.6393 99.7532 8.77355L95.5912 9.57907C95.3227 9.57907 95.1884 9.57907 95.0542 9.57907C94.9199 9.57907 94.9199 9.44479 94.9199 9.31053C94.9199 9.31053 95.1884 9.17629 95.5912 8.90778Z" fill="#EC8027"/>
</svg>
